<?xml version="1.0" encoding="UTF-8" standalone="no"?>
<!DOCTYPE svg PUBLIC "-//W3C//DTD SVG 1.1//EN" "http://www.w3.org/Graphics/SVG/1.1/DTD/svg11.dtd">
<svg width="100%" height="100%" viewBox="0 0 900 900" version="1.1" xmlns="http://www.w3.org/2000/svg" xmlns:xlink="http://www.w3.org/1999/xlink" xml:space="preserve" xmlns:serif="http://www.serif.com/" style="fill-rule:evenodd;clip-rule:evenodd;stroke-linejoin:round;stroke-miterlimit:2;">
    <g id="Layer_x0020_1" transform="matrix(100,0,0,100,0,0.357388)">
        <g transform="matrix(1.32154,0,0,1.32154,-1.11656,-1.77206)">
            <path d="M4.25,8.146C4.25,8.146 6.032,7.335 6.463,6.621C6.999,5.734 7.466,2.466 7.466,2.466C7.466,2.466 6.432,2.272 5.938,2.098C5.402,1.91 4.25,1.338 4.25,1.338" style="fill:rgb(204,34,43);"/>
        </g>
        <g transform="matrix(1.32154,0,0,1.32154,-1.11656,-1.77206)">
            <path d="M4.25,1.338C4.25,1.338 3.077,1.91 2.541,2.098C2.053,2.27 1.034,2.466 1.034,2.466C1.034,2.466 1.501,5.734 2.037,6.621C2.468,7.335 4.25,8.146 4.25,8.146" style="fill:rgb(221,50,59);"/>
        </g>
        <g transform="matrix(1.98672,0,0,2.64896,-2.10678,-10.5948)">
            <g transform="matrix(2.26504,0,0,2.26504,1.51275,5.88133)">
                <path d="M0.39,-0L0.39,-0.37C0.39,-0.389 0.386,-0.405 0.378,-0.418C0.37,-0.43 0.357,-0.436 0.338,-0.436C0.327,-0.436 0.317,-0.435 0.307,-0.432C0.297,-0.429 0.286,-0.428 0.275,-0.429C0.262,-0.429 0.25,-0.434 0.241,-0.445C0.232,-0.456 0.223,-0.467 0.214,-0.48C0.248,-0.499 0.277,-0.512 0.302,-0.519C0.326,-0.526 0.349,-0.529 0.37,-0.529C0.388,-0.529 0.406,-0.526 0.423,-0.52C0.44,-0.514 0.456,-0.504 0.469,-0.492C0.482,-0.478 0.493,-0.462 0.501,-0.442C0.509,-0.421 0.513,-0.397 0.513,-0.368L0.513,-0L0.39,-0ZM0.049,-0.517L0.149,-0.517C0.165,-0.499 0.175,-0.481 0.181,-0.464C0.186,-0.446 0.188,-0.427 0.188,-0.407L0.188,-0L0.065,-0L0.065,-0.391C0.065,-0.43 0.06,-0.472 0.049,-0.517Z" style="fill:white;fill-rule:nonzero;"/>
            </g>
        </g>
        <g transform="matrix(1.98672,0,0,2.64896,2.56695,-10.5966)">
            <g transform="matrix(2.26504,0,0,2.26504,1.51275,5.88133)">
                <path d="M0.39,-0L0.39,-0.37C0.39,-0.389 0.386,-0.405 0.378,-0.418C0.37,-0.43 0.357,-0.436 0.338,-0.436C0.327,-0.436 0.317,-0.435 0.307,-0.432C0.297,-0.429 0.286,-0.428 0.275,-0.429C0.262,-0.429 0.25,-0.434 0.241,-0.445C0.232,-0.456 0.223,-0.467 0.214,-0.48C0.248,-0.499 0.277,-0.512 0.302,-0.519C0.326,-0.526 0.349,-0.529 0.37,-0.529C0.388,-0.529 0.406,-0.526 0.423,-0.52C0.44,-0.514 0.456,-0.504 0.469,-0.492C0.482,-0.478 0.493,-0.462 0.501,-0.442C0.509,-0.421 0.513,-0.397 0.513,-0.368L0.513,-0L0.39,-0ZM0.049,-0.517L0.149,-0.517C0.165,-0.499 0.175,-0.481 0.181,-0.464C0.186,-0.446 0.188,-0.427 0.188,-0.407L0.188,-0L0.065,-0L0.065,-0.391C0.065,-0.43 0.06,-0.472 0.049,-0.517Z" style="fill:white;fill-rule:nonzero;"/>
            </g>
        </g>
        <g transform="matrix(1.7848,0,0,2.37973,0.711244,-7.08958)">
            <g transform="matrix(2.52129,0,0,2.52129,1.51275,5.88133)">
                <path d="M0.473,-0.312L0.473,-0.172C0.473,-0.139 0.474,-0.11 0.475,-0.083C0.477,-0.056 0.482,-0.028 0.489,-0L0.399,-0C0.388,-0.007 0.379,-0.017 0.372,-0.03C0.365,-0.043 0.361,-0.057 0.36,-0.07L0.349,-0.052C0.335,-0.039 0.322,-0.028 0.31,-0.02C0.297,-0.011 0.285,-0.005 0.274,-0C0.262,0.005 0.25,0.008 0.238,0.009C0.227,0.011 0.215,0.012 0.202,0.012C0.177,0.012 0.155,0.008 0.136,-0C0.116,-0.008 0.099,-0.019 0.085,-0.032C0.071,-0.045 0.06,-0.061 0.053,-0.079C0.046,-0.097 0.042,-0.116 0.042,-0.136C0.042,-0.159 0.047,-0.18 0.056,-0.199C0.065,-0.218 0.08,-0.234 0.102,-0.249C0.123,-0.264 0.152,-0.276 0.187,-0.286C0.222,-0.297 0.265,-0.304 0.317,-0.309C0.314,-0.29 0.308,-0.271 0.298,-0.254C0.287,-0.237 0.271,-0.226 0.248,-0.222C0.216,-0.217 0.194,-0.207 0.182,-0.193C0.169,-0.179 0.163,-0.163 0.163,-0.146C0.163,-0.127 0.17,-0.112 0.183,-0.099C0.196,-0.086 0.212,-0.079 0.233,-0.079C0.254,-0.079 0.274,-0.085 0.295,-0.098C0.316,-0.11 0.335,-0.127 0.353,-0.15L0.353,-0.316C0.353,-0.352 0.344,-0.382 0.325,-0.404C0.306,-0.426 0.276,-0.437 0.237,-0.437C0.22,-0.437 0.202,-0.435 0.184,-0.432C0.165,-0.429 0.144,-0.423 0.121,-0.414L0.091,-0.491C0.122,-0.505 0.152,-0.515 0.181,-0.52C0.21,-0.525 0.235,-0.528 0.258,-0.528C0.327,-0.528 0.38,-0.509 0.417,-0.472C0.454,-0.435 0.473,-0.381 0.473,-0.312Z" style="fill:white;fill-rule:nonzero;"/>
            </g>
        </g>
    </g>
</svg>
