<?xml version="1.0" standalone="no"?>
<!DOCTYPE svg PUBLIC "-//W3C//DTD SVG 20010904//EN"
 "http://www.w3.org/TR/2001/REC-SVG-20010904/DTD/svg10.dtd">
<svg version="1.0" xmlns="http://www.w3.org/2000/svg"
 width="700.000000pt" height="700.000000pt" viewBox="0 0 700.000000 700.000000"
 preserveAspectRatio="xMidYMid meet">
<metadata>
Created by potrace 1.14, written by Peter Selinger 2001-2017
</metadata>
<g transform="translate(0.000000,700.000000) scale(0.100000,-0.100000)"
fill="#000000" stroke="none">
<path d="M3350 6929 c-241 -117 -655 -309 -885 -411 -49 -22 -108 -48 -130
-58 -250 -112 -547 -230 -680 -270 -215 -65 -279 -83 -445 -125 -153 -38 -486
-115 -565 -131 -33 -6 -58 -12 -110 -24 -27 -6 -61 -14 -75 -16 -69 -13 -180
-36 -221 -45 l-47 -10 8 -37 c5 -20 11 -59 14 -87 3 -27 8 -61 11 -75 2 -13 7
-42 10 -65 3 -22 12 -78 20 -125 8 -47 17 -103 20 -125 7 -52 14 -94 20 -125
3 -14 7 -41 10 -60 3 -19 7 -46 10 -60 3 -14 7 -41 10 -60 3 -19 17 -98 30
-175 13 -77 27 -156 30 -175 3 -19 10 -54 16 -78 5 -23 12 -59 15 -80 3 -20
11 -68 19 -107 8 -38 16 -84 19 -101 6 -35 63 -328 70 -359 2 -11 18 -90 36
-175 25 -125 102 -472 114 -515 2 -5 6 -28 11 -50 13 -68 122 -493 160 -625
19 -69 42 -149 50 -178 64 -228 204 -596 287 -752 109 -206 282 -395 568 -620
122 -96 444 -320 460 -320 5 0 10 -4 12 -8 3 -8 323 -202 424 -257 27 -15 54
-31 59 -35 9 -7 52 -30 242 -131 105 -56 479 -243 524 -262 l35 -14 227 113
c838 417 1436 804 1798 1164 195 193 279 320 386 585 24 61 48 119 53 130 30
67 159 480 210 670 70 264 168 667 186 765 3 14 9 41 14 60 10 38 59 269 66
310 3 14 10 50 16 80 6 30 12 60 14 65 1 6 7 35 13 65 13 64 15 72 41 210 11
58 22 116 25 130 6 32 46 247 51 280 3 14 9 48 14 75 5 28 12 67 16 89 3 21 8
48 10 60 4 23 11 63 19 111 2 17 7 41 10 55 8 44 35 203 50 305 2 11 15 94 30
185 32 201 32 203 41 265 3 28 8 53 10 57 3 4 -5 10 -18 12 -28 6 -213 43
-248 50 -70 13 -137 27 -169 35 -20 5 -52 12 -71 15 -19 3 -84 17 -145 31 -60
15 -121 28 -135 31 -14 3 -33 7 -42 10 -9 3 -25 6 -35 8 -44 9 -288 71 -398
101 -201 56 -335 100 -470 155 -204 83 -270 111 -375 157 -69 30 -147 66 -175
78 -27 13 -75 34 -105 48 -193 88 -490 228 -733 346 -103 50 -188 91 -190 90
-1 0 -67 -32 -147 -70z"/>
</g>
</svg>
